<?xml version="1.0" encoding="utf-8"?>
<!-- Generator: Adobe Illustrator 19.2.0, SVG Export Plug-In . SVG Version: 6.00 Build 0)  -->
<svg version="1.1" xmlns="http://www.w3.org/2000/svg" xmlns:xlink="http://www.w3.org/1999/xlink" x="0px" y="0px"
	 viewBox="0 0 595.3 841.9" style="enable-background:new 0 0 595.3 841.9;" xml:space="preserve">
<style type="text/css">
	.st0{opacity:0.93;}
	.st1{opacity:0.2;fill:#328998;}
	.st2{fill:#323641;}
	.st3{fill:#F0B200;}
	.st4{fill:#DA0D22;}
	.st5{fill:#F1EBCB;}
	.st6{fill:#979D9D;}
	.st7{fill:#C0D6DC;}
	.st8{fill:#ABC0C6;}
	.st9{fill:#982C40;}
	.st10{fill:#2A1226;}
	.st11{fill:#EB5C16;}
	.st12{fill:#F18318;}
	.st13{opacity:0.2;fill:#323641;}
</style>
<g id="Livello_1">
</g>
<g id="Livello_3">
	<g class="st0">
		<ellipse class="st1" cx="280.5" cy="132.3" rx="276" ry="132.3"/>
		<ellipse class="st1" cx="280.5" cy="182.2" rx="276" ry="132.3"/>
		<ellipse class="st1" cx="280.5" cy="224.2" rx="276" ry="132.3"/>
		<ellipse class="st1" cx="280.5" cy="274.1" rx="276" ry="132.3"/>
		<ellipse class="st1" cx="280.5" cy="318.3" rx="276" ry="132.3"/>
		<ellipse class="st1" cx="280.5" cy="368.2" rx="276" ry="132.3"/>
		<ellipse class="st1" cx="280.5" cy="410.2" rx="276" ry="132.3"/>
		<ellipse class="st1" cx="280.5" cy="460.1" rx="276" ry="132.3"/>
	</g>
	<g>
		<polygon class="st2" points="369.2,156.5 375.8,170 390.7,172.2 379.9,182.7 382.5,197.5 369.2,190.5 355.8,197.5 358.4,182.7 
			347.6,172.2 362.5,170 		"/>
		<polygon class="st2" points="412.2,274.5 418.9,288 433.8,290.2 423,300.7 425.6,315.5 412.2,308.5 398.9,315.5 401.5,300.7 
			390.7,290.2 405.6,288 		"/>
		<polygon class="st2" points="241.8,115.1 245,121.7 252.3,122.7 247.1,127.9 248.3,135.1 241.8,131.7 235.3,135.1 236.6,127.9 
			231.3,122.7 238.6,121.7 		"/>
		<polygon class="st2" points="160.5,365.2 167.2,378.6 182,380.8 171.3,391.3 173.8,406.1 160.5,399.1 147.2,406.1 149.7,391.3 
			139,380.8 153.8,378.6 		"/>
		<polygon class="st2" points="371.3,232.2 374.5,238.7 381.8,239.8 376.6,244.9 377.8,252.1 371.3,248.7 364.8,252.1 366.1,244.9 
			360.8,239.8 368.1,238.7 		"/>
		<polygon class="st2" points="133.3,274.5 136.5,281.1 143.8,282.1 138.5,287.2 139.8,294.4 133.3,291 126.8,294.4 128.1,287.2 
			122.8,282.1 130.1,281.1 		"/>
		<polygon class="st2" points="400.2,370.2 403.5,376.8 410.7,377.8 405.5,383 406.7,390.2 400.2,386.8 393.8,390.2 395,383 
			389.8,377.8 397,376.8 		"/>
		<polygon class="st2" points="182,182 191.9,202 214,205.3 198,220.8 201.8,242.9 182,232.5 162.3,242.9 166,220.8 150.1,205.3 
			172.2,202 		"/>
		<polygon class="st2" points="315.8,154.1 319,160.7 326.3,161.7 321.1,166.9 322.3,174.1 315.8,170.7 309.3,174.1 310.6,166.9 
			305.3,161.7 312.6,160.7 		"/>
	</g>
	<polygon class="st3" points="289.3,431.5 292.5,438 299.7,439.1 294.5,444.2 295.7,451.4 289.3,448 282.8,451.4 284,444.2 
		278.8,439.1 286,438 	"/>
	<g>
		<polygon class="st3" points="366.2,154.5 372.8,168 387.7,170.2 376.9,180.7 379.5,195.5 366.2,188.5 352.8,195.5 355.4,180.7 
			344.6,170.2 359.5,168 		"/>
		<polygon class="st3" points="409.2,272.5 415.9,286 430.8,288.2 420,298.7 422.6,313.5 409.2,306.5 395.9,313.5 398.5,298.7 
			387.7,288.2 402.6,286 		"/>
		<polygon class="st3" points="238.8,113.1 242,119.7 249.3,120.7 244.1,125.9 245.3,133.1 238.8,129.7 232.3,133.1 233.6,125.9 
			228.3,120.7 235.6,119.7 		"/>
		<polygon class="st3" points="157.5,363.2 164.2,376.6 179,378.8 168.3,389.3 170.8,404.1 157.5,397.1 144.2,404.1 146.7,389.3 
			136,378.8 150.8,376.6 		"/>
		<polygon class="st3" points="368.3,230.2 371.5,236.7 378.8,237.8 373.6,242.9 374.8,250.1 368.3,246.7 361.8,250.1 363.1,242.9 
			357.8,237.8 365.1,236.7 		"/>
		<polygon class="st3" points="130.3,272.5 133.5,279.1 140.8,280.1 135.5,285.2 136.8,292.4 130.3,289 123.8,292.4 125.1,285.2 
			119.8,280.1 127.1,279.1 		"/>
		<polygon class="st3" points="397.2,368.2 400.5,374.8 407.7,375.8 402.5,381 403.7,388.2 397.2,384.8 390.8,388.2 392,381 
			386.8,375.8 394,374.8 		"/>
		<polygon class="st3" points="179,180 188.9,200 211,203.3 195,218.8 198.8,240.9 179,230.5 159.3,240.9 163,218.8 147.1,203.3 
			169.2,200 		"/>
		<polygon class="st3" points="312.8,152.1 316,158.7 323.3,159.7 318.1,164.9 319.3,172.1 312.8,168.7 306.3,172.1 307.6,164.9 
			302.3,159.7 309.6,158.7 		"/>
	</g>
</g>
<g id="Livello_2">
	<path class="st2" d="M249.5,304.9c-25.3,0-45.8,20.5-45.8,45.8c0,3.7,0.4,7.2,1.3,10.7c4.8-20.2,22.9-35.2,44.5-35.2"/>
	<path class="st4" d="M202.4,358.4L202.4,358.4c-0.1,0-0.1,0-0.1,0c-10,0-13.4,2.2-14.4,5.3c0.3,0.9,0.6,1.7,1,2.5
		C188.9,362,191,358.6,202.4,358.4z"/>
	<path class="st4" d="M203.8,358.5c-0.1,0-0.1,0-0.2,0v15.1c0,0,0.1,0,0.1,0c0,0,0.1,0,0.1,0V358.5z"/>
	<path class="st4" d="M218.3,366.6c0-4-3.6-7.4-13.4-8.1v15.1c0,0-1.3,0-1.2,0c8.5,0.7,13.3-1.6,16-7v0c0-0.8-0.1-1.5-0.4-2.2
		C219,365.1,218.7,365.9,218.3,366.6L218.3,366.6z"/>
	<path class="st4" d="M203.6,358.4c-0.4,0-0.7,0-1.1,0v0c-11.4,0.2-13.5,3.6-13.6,7.8c-0.4-0.8-0.7-1.6-1-2.5
		c-0.3,0.8-0.4,1.6-0.4,2.5c2.7,5.7,7.5,8.2,16.2,7.4c0,0-0.1,0-0.1,0V358.4z"/>
	<path class="st4" d="M204.9,358.4L204.9,358.4c9.8,0.8,13.4,4.1,13.4,8.1v0c0.3-0.7,0.6-1.4,0.9-2.2
		C218,361.2,213.8,358.8,204.9,358.4z"/>
	<path class="st4" d="M204.9,358.5c-0.4,0-0.8,0-1.1-0.1v15.1c0,0-0.1,0-0.1,0c0,0,1.3,0,1.2,0V358.5z"/>
	<g>
		<path class="st2" d="M203.4,356.8c-8.7,0-15.8,4-15.8,8.9c0,4.9,7.1,8.9,15.8,8.9c8.7,0,15.8-4,15.8-8.9
			C219.2,360.7,212.1,356.8,203.4,356.8z M203.4,372.7c-6.9,0-12.6-3.2-12.6-7.1c0-3.9,5.6-5.8,12.6-5.8c6.9,0,12.6,1.9,12.6,5.8
			C216,369.5,210.4,372.7,203.4,372.7z"/>
	</g>
	<path class="st2" d="M311.5,304.9c25.3,0,45.8,20.5,45.8,45.8c0,3.7-0.4,7.2-1.3,10.7c-4.8-20.2-22.9-35.2-44.5-35.2"/>
	<path class="st5" d="M279.6,210.5c-7.5,0-14.4-2.6-19.9-7c-10.1,15.1-20,32.5-20,64.1c0,64.3,0,75.1,40.1,71.9v-129
		C279.7,210.5,279.6,210.5,279.6,210.5z"/>
	<path class="st6" d="M300.6,202.4c-5.2,4.7-12,7.6-19.4,8v128.9c-0.5,0-0.9,0.1-1.4,0.1v0.5c41.5,3.6,41.5-7.4,41.5-72.4
		C321.3,235.2,311,217.7,300.6,202.4z"/>
	<path class="st7" d="M281.2,210.4c-0.4,0-0.9,0-1.4,0v129c0.4,0,0.9-0.1,1.4-0.1V210.4z"/>
	<path class="st8" d="M281.2,164.1"/>
	<path class="st2" d="M280.5,210.5v-41.6c-3.2,16-12.4,22.1-20.8,34.6c5.4,4.4,12.3,7,19.9,7C279.6,210.5,280.4,210.5,280.5,210.5z"
		/>
	<path class="st2" d="M280.5,210.5c7.5-0.4,14.9-3.4,20.1-8c-8.1-12-17-18-20.1-33.6V210.5z"/>
	<g>
		<path class="st3" d="M279.6,335.1c-15.7,0-28.4,7.1-28.4,15.9s12.7,15.9,28.4,15.9c15.7,0,28.4-7.1,28.4-15.9
			S295.2,335.1,279.6,335.1z"/>
	</g>
	<path class="st5" d="M202.3,358.4c0,0,0.1,0,0.1,0v-50.1c0.1,0,0.1,0,0.2,0c0.5,0,1.1,0,1.6-0.1c-4.4-0.2-8.5-1.7-11.8-4.2
		c-1.9,3.3-3.7,6.9-5,11.4c0.9,0.4,1.5,1.2,1.5,2.2c0,1.3-1.1,2.4-2.4,2.4c0,0-0.1,0-0.1,0c-0.5,3-0.8,6.4-0.8,10.2
		c0,0.1,0,0.2,0,0.4c1.3,0,2.4,1.1,2.4,2.4c0,1.3-1.1,2.4-2.4,2.4c0,3.6,0,7,0.1,10.1c1.3,0.1,2.3,1.1,2.3,2.4
		c0,1.2-0.9,2.2-2.1,2.4c0.3,5.3,0.9,9.7,2,13.2C188.9,360.6,192.3,358.4,202.3,358.4z"/>
	<path class="st4" d="M203.3,358.4c0.6,0,1.4,0,1.6,0c-0.4,0-0.8,0-1.3,0C203.5,358.4,203.4,358.4,203.3,358.4z"/>
	<path class="st6" d="M219.4,348.1c0-1.3,1-2.4,2.3-2.4c0.1-3.1,0.1-6.5,0.1-10.1c-1.2-0.1-2.2-1.1-2.2-2.4c0-1.3,1-2.3,2.2-2.4
		c0-0.1,0-0.3,0-0.4c0-3.8-0.3-7.2-0.8-10.2c-0.1,0-0.3,0-0.4,0c-1.3,0-2.4-1.1-2.4-2.4c0-1.1,0.7-2,1.8-2.3
		c-1.2-4.3-2.9-7.8-4.8-11c-3.1,2.2-6.9,3.6-10.9,3.9c0.2,0,0.5,0,0.7,0v50.1v0.1c8.9,0.4,13.1,2.8,14.3,5.9
		c1.3-3.6,1.9-8.2,2.2-13.9C220.3,350.3,219.4,349.3,219.4,348.1z"/>
	<path class="st9" d="M202.4,308.3v50.1c0.2,0,0.5,0,0.9,0c0.1,0,0.2,0,0.3,0c0.5,0,0.9,0,1.3,0v-50.1c-0.2,0-0.5,0-0.7,0
		c-0.5,0-1,0.1-1.6,0.1C202.5,308.3,202.5,308.3,202.4,308.3z"/>
	<path class="st4" d="M202.4,358.4L202.4,358.4c0.4,0,0.8,0,1.1,0.1v-0.1c0.1,0,0.1,0,0.2,0c0.4,0,0.8,0,1.1,0v-0.1
		c-0.3,0-1,0-1.6,0C203,358.4,202.7,358.4,202.4,358.4z"/>
	<path class="st4" d="M202.4,358.4L202.4,358.4c0.3,0,0.6,0,0.9,0C202.9,358.4,202.6,358.4,202.4,358.4z"/>
	<path class="st4" d="M203.6,358.4L203.6,358.4c0.1,0.1,0.1,0.1,0.2,0.1v-0.1C203.7,358.4,203.6,358.4,203.6,358.4z"/>
	<path class="st4" d="M203.8,358.5c0.4,0,0.8,0,1.1,0.1v-0.1C204.5,358.4,204.2,358.4,203.8,358.5L203.8,358.5z"/>
	<path class="st2" d="M203.7,284.6c-1.2,11-6.2,11-11.3,19.5c3.5,2.6,7.8,4.1,12.5,4.2L203.7,284.6z"/>
	<path class="st2" d="M202.4,308.3c0.1,0,0.1,0,0.2,0c4.7,0,9-1.5,12.5-3.9c-5.1-8.7-10.2-8.4-11.4-19.6L202.4,308.3z"/>
	<circle class="st9" cx="203.5" cy="348.1" r="5.6"/>
	<circle class="st7" cx="203.5" cy="348.1" r="2.4"/>
	<circle class="st7" cx="203.5" cy="319.1" r="2.4"/>
	<g>
		<path class="st10" d="M203.4,354.6c-10.8,0-19.6,4.9-19.6,11c0,6.1,8.8,11,19.6,11c10.8,0,19.6-4.9,19.6-11
			C223,359.5,214.2,354.6,203.4,354.6z M203.4,374.4c-8.6,0-15.6-3.9-15.6-8.7c0-4.8,7-7.2,15.6-7.2c8.6,0,15.6,2.4,15.6,7.2
			C219,370.4,212,374.4,203.4,374.4z"/>
	</g>
	<path class="st11" d="M214.3,367c0,6-10.8,33.8-10.8,25.7c0-6-10.8-19.8-10.8-25.7"/>
	<path class="st12" d="M196.2,367c0,4.3,7.3,11.2,7.3,15.5c0,5.8,7.3-11.2,7.3-15.5"/>
	<path class="st3" d="M195.5,365.7c0,1.4,5.6,2.6,7,2.6c4.5,0,7-1.2,7-2.6"/>
	<g>
		<path class="st11" d="M202.6,374c0-1.9-3.8-4.6-5.6-6.9h-1.1c0,2.5,6.7,6.4,6.7,8.9c0,3.4,6.7-6.4,6.7-8.9h-0.5
			C207.2,370.7,202.6,376.7,202.6,374z"/>
	</g>
	<g>
		<path class="st2" d="M249.5,301.4c-8,0-14.5,6.5-14.5,14.5c0,8,6.5,14.5,14.5,14.5c8,0,14.5-6.5,14.5-14.5
			C264,307.9,257.5,301.4,249.5,301.4z M249.5,322.2c-3.5,0-6.3-2.8-6.3-6.3c0-3.5,2.8-6.3,6.3-6.3c3.5,0,6.3,2.8,6.3,6.3
			C255.8,319.4,253,322.2,249.5,322.2z"/>
		<circle class="st9" cx="249.5" cy="315.9" r="11.3"/>
	</g>
	<circle class="st8" cx="249.5" cy="315.9" r="2.4"/>
	<path class="st6" d="M358.7,358.4c0,0-0.1,0-0.1,0v-50.1c-0.1,0-0.1,0-0.2,0c-0.5,0-1.1,0-1.6-0.1c4.4-0.2,8.5-1.7,11.8-4.2
		c1.9,3.3,3.7,6.9,5,11.4c-0.9,0.4-1.5,1.2-1.5,2.2c0,1.3,1.1,2.4,2.4,2.4c0,0,0.1,0,0.1,0c0.5,3,0.8,6.4,0.8,10.2
		c0,0.1,0,0.2,0,0.4c-1.3,0-2.4,1.1-2.4,2.4c0,1.3,1.1,2.4,2.4,2.4c0,3.6,0,7-0.1,10.1c-1.3,0.1-2.3,1.1-2.3,2.4
		c0,1.2,0.9,2.2,2.1,2.4c-0.3,5.3-0.9,9.7-2,13.2C372.1,360.6,368.7,358.4,358.7,358.4z"/>
	<path class="st4" d="M357.7,358.4c-0.6,0-1.4,0-1.6,0c0.4,0,0.8,0,1.3,0C357.5,358.4,357.6,358.4,357.7,358.4z"/>
	<path class="st5" d="M341.6,348.1c0-1.3-1-2.4-2.3-2.4c-0.1-3.1-0.1-6.5-0.1-10.1c1.2-0.1,2.2-1.1,2.2-2.4c0-1.3-1-2.3-2.2-2.4
		c0-0.1,0-0.3,0-0.4c0-3.8,0.3-7.2,0.8-10.2c0.1,0,0.3,0,0.4,0c1.3,0,2.4-1.1,2.4-2.4c0-1.1-0.7-2-1.8-2.3c1.2-4.3,2.9-7.8,4.8-11
		c3.1,2.2,6.9,3.6,10.9,3.9c-0.2,0-0.5,0-0.7,0v50.1v0.1c-8.9,0.4-13.1,2.8-14.3,5.9c-1.3-3.6-1.9-8.2-2.2-13.9
		C340.7,350.3,341.6,349.3,341.6,348.1z"/>
	<path class="st9" d="M358.6,308.3v50.1c-0.2,0-0.5,0-0.9,0c-0.1,0-0.2,0-0.3,0c-0.5,0-0.9,0-1.3,0v-50.1c0.2,0,0.5,0,0.7,0
		c0.5,0,1,0.1,1.6,0.1C358.5,308.3,358.5,308.3,358.6,308.3z"/>
	<path class="st4" d="M357.4,358.4c0.4,0,0.7,0,1.1,0v0c11.4,0.2,13.5,3.6,13.6,7.8c0.4-0.8,0.7-1.6,1-2.5c0.3,0.8,0.4,1.6,0.4,2.5
		c-2.7,5.7-7.5,8.2-16.2,7.4c0,0,0.1,0,0.1,0V358.4z"/>
	<path class="st4" d="M358.6,358.4L358.6,358.4c0.1,0,0.1,0,0.1,0c10,0,13.4,2.2,14.4,5.3c-0.3,0.9-0.6,1.7-1,2.5
		C372.1,362,370,358.6,358.6,358.4z"/>
	<path class="st4" d="M358.6,358.4L358.6,358.4c-0.4,0-0.8,0-1.1,0.1v-0.1c-0.1,0-0.1,0-0.2,0c-0.4,0-0.8,0-1.1,0v-0.1
		c0.3,0,1,0,1.6,0C358,358.4,358.3,358.4,358.6,358.4z"/>
	<path class="st4" d="M358.6,358.4L358.6,358.4c-0.3,0-0.6,0-0.9,0C358.1,358.4,358.4,358.4,358.6,358.4z"/>
	<path class="st4" d="M357.2,358.5c0.1,0,0.1,0,0.2,0v15.1c0,0-0.1,0-0.1,0c0,0-0.1,0-0.1,0V358.5z"/>
	<path class="st4" d="M357.4,358.4L357.4,358.4c-0.1,0.1-0.1,0.1-0.2,0.1v-0.1C357.3,358.4,357.4,358.4,357.4,358.4z"/>
	<path class="st4" d="M342.7,366.6c0-4,3.6-7.4,13.4-8.1v15.1c0,0,1.3,0,1.2,0c-8.5,0.7-13.3-1.6-16-7v0c0-0.8,0.1-1.5,0.4-2.2
		C342,365.1,342.3,365.9,342.7,366.6L342.7,366.6z"/>
	<path class="st4" d="M356.1,358.4L356.1,358.4c-9.8,0.8-13.4,4.1-13.4,8.1v0c-0.3-0.7-0.6-1.4-0.9-2.2
		C343,361.2,347.2,358.8,356.1,358.4z"/>
	<path class="st4" d="M356.1,358.5c0.4,0,0.8,0,1.1-0.1v15.1c0,0,0.1,0,0.1,0c0,0-1.3,0-1.2,0V358.5z"/>
	<path class="st4" d="M357.2,358.5c-0.4,0-0.8,0-1.1,0.1v-0.1C356.5,358.4,356.8,358.4,357.2,358.5L357.2,358.5z"/>
	<path class="st2" d="M357.3,284.6c1.2,11,6.2,11,11.3,19.5c-3.5,2.6-7.8,4.1-12.5,4.2L357.3,284.6z"/>
	<path class="st2" d="M358.6,308.3c-0.1,0-0.1,0-0.2,0c-4.7,0-9-1.5-12.5-3.9c5.1-8.7,10.2-8.4,11.4-19.6L358.6,308.3z"/>
	<circle class="st9" cx="357.5" cy="348.1" r="5.6"/>
	<circle class="st7" cx="357.5" cy="348.1" r="2.4"/>
	<circle class="st7" cx="357.5" cy="319.1" r="2.4"/>
	<g>
		<path class="st10" d="M338,365.6c0,6.1,8.8,11,19.6,11c10.8,0,19.6-4.9,19.6-11c0-6.1-8.8-11-19.6-11
			C346.8,354.6,338,359.5,338,365.6z M342,365.6c0-4.8,7-7.2,15.6-7.2c8.6,0,15.6,2.4,15.6,7.2c0,4.8-7,8.7-15.6,8.7
			C349,374.4,342,370.4,342,365.6z"/>
	</g>
	<path class="st9" d="M187.9,348.1c0-1.3-1-2.3-2.3-2.4c0,1.7,0.1,3.3,0.2,4.8C187,350.3,187.9,349.3,187.9,348.1z"/>
	<path class="st9" d="M188.9,317.7c0-1-0.6-1.9-1.5-2.2c-0.4,1.5-0.8,3-1.1,4.7c0,0,0.1,0,0.1,0C187.8,320.1,188.9,319,188.9,317.7z
		"/>
	<path class="st9" d="M187.9,333.1c0-1.3-1.1-2.4-2.4-2.4c0,1.7,0,3.3,0,4.9C186.9,335.6,187.9,334.5,187.9,333.1z"/>
	<path class="st9" d="M219.4,348.1c0,1.2,0.9,2.2,2.1,2.4c0.1-1.5,0.1-3.1,0.2-4.8C220.4,345.7,219.4,346.8,219.4,348.1z"/>
	<path class="st9" d="M218.1,317.7c0,1.3,1.1,2.4,2.4,2.4c0.1,0,0.3,0,0.4,0c-0.3-1.7-0.7-3.2-1.1-4.7
		C218.9,315.7,218.1,316.6,218.1,317.7z"/>
	<path class="st9" d="M219.6,333.1c0,1.3,1,2.3,2.2,2.4c0-1.6,0-3.2,0-4.8C220.6,330.8,219.6,331.9,219.6,333.1z"/>
	<circle class="st9" cx="203.5" cy="319.1" r="5.6"/>
	<path class="st9" d="M373,348.1c0-1.3,1-2.3,2.3-2.4c0,1.7-0.1,3.3-0.2,4.8C374,350.3,373,349.3,373,348.1z"/>
	<path class="st9" d="M372.1,317.7c0-1,0.6-1.9,1.5-2.2c0.4,1.5,0.8,3,1.1,4.7c0,0-0.1,0-0.1,0C373.2,320.1,372.1,319,372.1,317.7z"
		/>
	<path class="st9" d="M373,333.1c0-1.3,1.1-2.4,2.4-2.4c0,1.7,0,3.3,0,4.9C374.1,335.6,373,334.5,373,333.1z"/>
	<path class="st9" d="M341.6,348.1c0,1.2-0.9,2.2-2.1,2.4c-0.1-1.5-0.1-3.1-0.2-4.8C340.6,345.7,341.6,346.8,341.6,348.1z"/>
	<path class="st9" d="M342.9,317.7c0,1.3-1.1,2.4-2.4,2.4c-0.1,0-0.3,0-0.4,0c0.3-1.7,0.7-3.2,1.1-4.7
		C342.1,315.7,342.9,316.6,342.9,317.7z"/>
	<path class="st9" d="M341.4,333.1c0,1.3-1,2.3-2.2,2.4c0-1.6,0-3.2,0-4.8C340.4,330.8,341.4,331.9,341.4,333.1z"/>
	<circle class="st9" cx="357.5" cy="319.1" r="5.6"/>
	<g>
		<path class="st2" d="M341.8,365.6c0,4.9,7.1,8.9,15.8,8.9c8.7,0,15.8-4,15.8-8.9c0-4.9-7.1-8.9-15.8-8.9
			C348.9,356.8,341.8,360.7,341.8,365.6z M345,365.6c0-3.9,5.6-5.8,12.6-5.8s12.6,1.9,12.6,5.8c0,3.9-5.6,7.1-12.6,7.1
			S345,369.5,345,365.6z"/>
	</g>
	<path class="st11" d="M346.7,367c0,6,10.8,33.8,10.8,25.7c0-6,10.8-19.8,10.8-25.7"/>
	<path class="st12" d="M364.8,367c0,4.3-7.3,11.2-7.3,15.5c0,5.8-7.3-11.2-7.3-15.5"/>
	<path class="st3" d="M365.4,365.7c0,1.4-5.6,2.6-7,2.6c-4.5,0-7-1.2-7-2.6"/>
	<g>
		<path class="st11" d="M358.4,374c0-1.9,3.8-4.6,5.6-6.9h1.1c0,2.5-6.7,6.4-6.7,8.9c0,3.4-6.7-6.4-6.7-8.9h0.5
			C353.8,370.7,358.4,376.7,358.4,374z"/>
	</g>
	<g>
		<path class="st10" d="M279.6,331.3c-19.4,0-35.2,8.8-35.2,19.7c0,10.9,15.8,19.7,35.2,19.7c19.4,0,35.2-8.8,35.2-19.7
			C314.7,340.1,299,331.3,279.6,331.3z M279.6,366.7c-15.5,0-28.1-7-28.1-15.7c0-8.7,12.6-13,28.1-13c15.5,0,28.1,4.3,28.1,13
			C307.6,359.7,295,366.7,279.6,366.7z"/>
	</g>
	<g>
		<path class="st2" d="M279.6,335.1c-15.7,0-28.4,7.1-28.4,15.9s12.7,15.9,28.4,15.9c15.7,0,28.4-7.1,28.4-15.9
			S295.2,335.1,279.6,335.1z M279.6,363.7c-12.5,0-22.7-5.7-22.7-12.7c0-7,10.2-10.5,22.7-10.5c12.5,0,22.7,3.5,22.7,10.5
			C302.2,358,292.1,363.7,279.6,363.7z"/>
	</g>
	<path class="st11" d="M299.1,348c0,10.7-19.4,60.9-19.4,46.3c0-10.7-19.4-35.6-19.4-46.3"/>
	<path class="st12" d="M266.5,348.2c0,7.7,13.2,20.1,13.2,27.9c0,10.5,13.2-20.1,13.2-27.9"/>
	<g>
		<path class="st11" d="M278.1,364.7c0-3.4-6.9-8.2-10.2-12.5H266c0,4.4,12.1,11.5,12.1,15.9c0,6,12.1-11.5,12.1-15.9h-0.9
			C286.3,358.8,278.1,369.6,278.1,364.7z"/>
	</g>
	<path class="st3" d="M265.4,345.8c0,2.5,13.3,3.8,12.7,6.9c-1.7,7.9,12.7-4.3,12.7-6.9"/>
	<circle class="st9" cx="279.6" cy="271.7" r="14.3"/>
	<circle class="st9" cx="279.6" cy="234.4" r="11.3"/>
	<circle class="st5" cx="279.6" cy="271.5" r="11.5"/>
	<circle class="st5" cx="279.6" cy="234.4" r="9.1"/>
	<circle class="st13" cx="249.5" cy="315.9" r="7.8"/>
	<g>
		<path class="st2" d="M311.5,301.4c-8,0-14.5,6.5-14.5,14.5c0,8,6.5,14.5,14.5,14.5c8,0,14.5-6.5,14.5-14.5
			C326.1,307.9,319.6,301.4,311.5,301.4z M311.5,322.2c-3.5,0-6.3-2.8-6.3-6.3c0-3.5,2.8-6.3,6.3-6.3c3.5,0,6.3,2.8,6.3,6.3
			C317.9,319.4,315,322.2,311.5,322.2z"/>
		<circle class="st9" cx="311.5" cy="315.9" r="11.3"/>
	</g>
	<circle class="st13" cx="311.5" cy="315.9" r="7.8"/>
	<circle class="st8" cx="311.5" cy="315.9" r="2.4"/>
	<circle class="st9" cx="279.6" cy="315.4" r="18.6"/>
	<circle class="st5" cx="279.6" cy="315.4" r="8.9"/>
</g>
</svg>
