<?xml version="1.0" encoding="utf-8"?>
<!-- Generator: Adobe Illustrator 19.2.0, SVG Export Plug-In . SVG Version: 6.00 Build 0)  -->
<svg version="1.1" id="Layer_1" xmlns="http://www.w3.org/2000/svg" xmlns:xlink="http://www.w3.org/1999/xlink" x="0px" y="0px"
	 viewBox="0 0 314 342.9" style="enable-background:new 0 0 314 342.9;" xml:space="preserve">
<style type="text/css">
	.st0{fill:#323641;}
	.st1{fill:#F0B200;}
	.st2{fill:#DA0D22;}
	.st3{fill:#F1EBCB;}
	.st4{fill:#979D9D;}
	.st5{fill:#C0D6DC;}
	.st6{fill:#ABC0C6;}
	.st7{fill:#982C40;}
	.st8{fill:#2A1226;}
	.st9{fill:#EB5C16;}
	.st10{fill:#F18318;}
	.st11{opacity:0.2;fill:#323641;enable-background:new    ;}
</style>
<g id="Livello_1">
</g>
<g id="Livello_3">
	<g>
		<polygon class="st0" points="249.4,43.4 256,56.9 270.9,59.1 260.1,69.6 262.7,84.4 249.4,77.4 236,84.4 238.6,69.6 227.8,59.1
			242.7,56.9 		"/>
		<polygon class="st0" points="292.4,161.4 299.1,174.9 314,177.1 303.2,187.6 305.8,202.4 292.4,195.4 279.1,202.4 281.7,187.6
			270.9,177.1 285.8,174.9 		"/>
		<polygon class="st0" points="122,2 125.2,8.6 132.5,9.6 127.3,14.8 128.5,22 122,18.6 115.5,22 116.8,14.8 111.5,9.6 118.8,8.6
			"/>
		<polygon class="st0" points="40.7,252.1 47.4,265.5 62.2,267.7 51.5,278.2 54,293 40.7,286 27.4,293 29.9,278.2 19.2,267.7
			34,265.5 		"/>
		<polygon class="st0" points="251.5,119.1 254.7,125.6 262,126.7 256.8,131.8 258,139 251.5,135.6 245,139 246.3,131.8 241,126.7
			248.3,125.6 		"/>
		<polygon class="st0" points="13.5,161.4 16.7,168 24,169 18.7,174.1 20,181.3 13.5,177.9 7,181.3 8.3,174.1 3,169 10.3,168 		"/>
		<polygon class="st0" points="280.4,257.1 283.7,263.7 290.9,264.7 285.7,269.9 286.9,277.1 280.4,273.7 274,277.1 275.2,269.9
			270,264.7 277.2,263.7 		"/>
		<polygon class="st0" points="62.2,68.9 72.1,88.9 94.2,92.2 78.2,107.7 82,129.8 62.2,119.4 42.5,129.8 46.2,107.7 30.3,92.2
			52.4,88.9 		"/>
		<polygon class="st0" points="196,41 199.2,47.6 206.5,48.6 201.3,53.8 202.5,61 196,57.6 189.5,61 190.8,53.8 185.5,48.6
			192.8,47.6 		"/>
	</g>
	<polygon class="st1" points="169.5,318.4 172.7,324.9 179.9,326 174.7,331.1 175.9,338.3 169.5,334.9 163,338.3 164.2,331.1
		159,326 166.2,324.9 	"/>
	<g>
		<polygon class="st1" points="246.4,41.4 253,54.9 267.9,57.1 257.1,67.6 259.7,82.4 246.4,75.4 233,82.4 235.6,67.6 224.8,57.1
			239.7,54.9 		"/>
		<polygon class="st1" points="289.4,159.4 296.1,172.9 311,175.1 300.2,185.6 302.8,200.4 289.4,193.4 276.1,200.4 278.7,185.6
			267.9,175.1 282.8,172.9 		"/>
		<polygon class="st1" points="119,0 122.2,6.6 129.5,7.6 124.3,12.8 125.5,20 119,16.6 112.5,20 113.8,12.8 108.5,7.6 115.8,6.6
			"/>
		<polygon class="st1" points="37.7,250.1 44.4,263.5 59.2,265.7 48.5,276.2 51,291 37.7,284 24.4,291 26.9,276.2 16.2,265.7
			31,263.5 		"/>
		<polygon class="st1" points="248.5,117.1 251.7,123.6 259,124.7 253.8,129.8 255,137 248.5,133.6 242,137 243.3,129.8 238,124.7
			245.3,123.6 		"/>
		<polygon class="st1" points="10.5,159.4 13.7,166 21,167 15.7,172.1 17,179.3 10.5,175.9 4,179.3 5.3,172.1 0,167 7.3,166 		"/>
		<polygon class="st1" points="277.4,255.1 280.7,261.7 287.9,262.7 282.7,267.9 283.9,275.1 277.4,271.7 271,275.1 272.2,267.9
			267,262.7 274.2,261.7 		"/>
		<polygon class="st1" points="59.2,66.9 69.1,86.9 91.2,90.2 75.2,105.7 79,127.8 59.2,117.4 39.5,127.8 43.2,105.7 27.3,90.2
			49.4,86.9 		"/>
		<polygon class="st1" points="193,39 196.2,45.6 203.5,46.6 198.3,51.8 199.5,59 193,55.6 186.5,59 187.8,51.8 182.5,46.6
			189.8,45.6 		"/>
	</g>
</g>
<g id="Livello_2">
	<path class="st0" d="M129.7,191.8c-25.3,0-45.8,20.5-45.8,45.8c0,3.7,0.4,7.2,1.3,10.7c4.8-20.2,22.9-35.2,44.5-35.2"/>
	<path class="st2" d="M82.6,245.3L82.6,245.3c-0.1,0-0.1,0-0.1,0c-10,0-13.4,2.2-14.4,5.3c0.3,0.9,0.6,1.7,1,2.5
		C69.1,248.9,71.2,245.5,82.6,245.3z"/>
	<path class="st2" d="M84,245.4c-0.1,0-0.1,0-0.2,0v15.1h0.1H84L84,245.4L84,245.4z"/>
	<path class="st2" d="M98.5,253.5c0-4-3.6-7.4-13.4-8.1v15.1c0,0-1.3,0-1.2,0c8.5,0.7,13.3-1.6,16-7l0,0c0-0.8-0.1-1.5-0.4-2.2
		C99.2,252,98.9,252.8,98.5,253.5L98.5,253.5z"/>
	<path class="st2" d="M83.8,245.3c-0.4,0-0.7,0-1.1,0l0,0c-11.4,0.2-13.5,3.6-13.6,7.8c-0.4-0.8-0.7-1.6-1-2.5
		c-0.3,0.8-0.4,1.6-0.4,2.5c2.7,5.7,7.5,8.2,16.2,7.4h-0.1L83.8,245.3L83.8,245.3z"/>
	<path class="st2" d="M85.1,245.3L85.1,245.3c9.8,0.8,13.4,4.1,13.4,8.1l0,0c0.3-0.7,0.6-1.4,0.9-2.2
		C98.2,248.1,94,245.7,85.1,245.3z"/>
	<path class="st2" d="M85.1,245.4c-0.4,0-0.8,0-1.1-0.1v15.1h-0.1c0,0,1.3,0,1.2,0L85.1,245.4L85.1,245.4z"/>
	<g>
		<path class="st0" d="M83.6,243.7c-8.7,0-15.8,4-15.8,8.9s7.1,8.9,15.8,8.9s15.8-4,15.8-8.9C99.4,247.6,92.3,243.7,83.6,243.7z
			 M83.6,259.6c-6.9,0-12.6-3.2-12.6-7.1s5.6-5.8,12.6-5.8c6.9,0,12.6,1.9,12.6,5.8S90.6,259.6,83.6,259.6z"/>
	</g>
	<path class="st0" d="M191.7,191.8c25.3,0,45.8,20.5,45.8,45.8c0,3.7-0.4,7.2-1.3,10.7c-4.8-20.2-22.9-35.2-44.5-35.2"/>
	<path class="st3" d="M159.8,97.4c-7.5,0-14.4-2.6-19.9-7c-10.1,15.1-20,32.5-20,64.1c0,64.3,0,75.1,40.1,71.9v-129
		C159.9,97.4,159.8,97.4,159.8,97.4z"/>
	<path class="st4" d="M180.8,89.3c-5.2,4.7-12,7.6-19.4,8v128.9c-0.5,0-0.9,0.1-1.4,0.1v0.5c41.5,3.6,41.5-7.4,41.5-72.4
		C201.5,122.1,191.2,104.6,180.8,89.3z"/>
	<path class="st5" d="M161.4,97.3c-0.4,0-0.9,0-1.4,0v129c0.4,0,0.9-0.1,1.4-0.1V97.3z"/>
	<path class="st6" d="M161.4,51"/>
	<path class="st0" d="M160.7,97.4V55.8c-3.2,16-12.4,22.1-20.8,34.6c5.4,4.4,12.3,7,19.9,7C159.8,97.4,160.6,97.4,160.7,97.4z"/>
	<path class="st0" d="M160.7,97.4c7.5-0.4,14.9-3.4,20.1-8c-8.1-12-17-18-20.1-33.6V97.4z"/>
	<g>
		<path class="st1" d="M159.8,222c-15.7,0-28.4,7.1-28.4,15.9s12.7,15.9,28.4,15.9c15.7,0,28.4-7.1,28.4-15.9S175.4,222,159.8,222z"
			/>
	</g>
	<path class="st3" d="M82.5,245.3h0.1v-50.1c0.1,0,0.1,0,0.2,0c0.5,0,1.1,0,1.6-0.1c-4.4-0.2-8.5-1.7-11.8-4.2
		c-1.9,3.3-3.7,6.9-5,11.4c0.9,0.4,1.5,1.2,1.5,2.2c0,1.3-1.1,2.4-2.4,2.4h-0.1c-0.5,3-0.8,6.4-0.8,10.2c0,0.1,0,0.2,0,0.4
		c1.3,0,2.4,1.1,2.4,2.4s-1.1,2.4-2.4,2.4c0,3.6,0,7,0.1,10.1c1.3,0.1,2.3,1.1,2.3,2.4c0,1.2-0.9,2.2-2.1,2.4
		c0.3,5.3,0.9,9.7,2,13.2C69.1,247.5,72.5,245.3,82.5,245.3z"/>
	<path class="st2" d="M83.5,245.3c0.6,0,1.4,0,1.6,0c-0.4,0-0.8,0-1.3,0C83.7,245.3,83.6,245.3,83.5,245.3z"/>
	<path class="st4" d="M99.6,235c0-1.3,1-2.4,2.3-2.4c0.1-3.1,0.1-6.5,0.1-10.1c-1.2-0.1-2.2-1.1-2.2-2.4s1-2.3,2.2-2.4
		c0-0.1,0-0.3,0-0.4c0-3.8-0.3-7.2-0.8-10.2c-0.1,0-0.3,0-0.4,0c-1.3,0-2.4-1.1-2.4-2.4c0-1.1,0.7-2,1.8-2.3
		c-1.2-4.3-2.9-7.8-4.8-11c-3.1,2.2-6.9,3.6-10.9,3.9c0.2,0,0.5,0,0.7,0v50.1v0.1c8.9,0.4,13.1,2.8,14.3,5.9
		c1.3-3.6,1.9-8.2,2.2-13.9C100.5,237.2,99.6,236.2,99.6,235z"/>
	<path class="st7" d="M82.6,195.2v50.1c0.2,0,0.5,0,0.9,0c0.1,0,0.2,0,0.3,0c0.5,0,0.9,0,1.3,0v-50.1c-0.2,0-0.5,0-0.7,0
		c-0.5,0-1,0.1-1.6,0.1C82.7,195.2,82.7,195.2,82.6,195.2z"/>
	<path class="st2" d="M82.6,245.3L82.6,245.3c0.4,0,0.8,0,1.1,0.1v-0.1c0.1,0,0.1,0,0.2,0c0.4,0,0.8,0,1.1,0v-0.1c-0.3,0-1,0-1.6,0
		C83.2,245.3,82.9,245.3,82.6,245.3z"/>
	<path class="st2" d="M82.6,245.3L82.6,245.3c0.3,0,0.6,0,0.9,0C83.1,245.3,82.8,245.3,82.6,245.3z"/>
	<path class="st2" d="M83.8,245.3L83.8,245.3c0.1,0.1,0.1,0.1,0.2,0.1v-0.1C83.9,245.3,83.8,245.3,83.8,245.3z"/>
	<path class="st2" d="M84,245.4c0.4,0,0.8,0,1.1,0.1v-0.1C84.7,245.3,84.4,245.3,84,245.4L84,245.4z"/>
	<path class="st0" d="M83.9,171.5c-1.2,11-6.2,11-11.3,19.5c3.5,2.6,7.8,4.1,12.5,4.2L83.9,171.5z"/>
	<path class="st0" d="M82.6,195.2c0.1,0,0.1,0,0.2,0c4.7,0,9-1.5,12.5-3.9c-5.1-8.7-10.2-8.4-11.4-19.6L82.6,195.2z"/>
	<circle class="st7" cx="83.7" cy="235" r="5.6"/>
	<circle class="st5" cx="83.7" cy="235" r="2.4"/>
	<circle class="st5" cx="83.7" cy="206" r="2.4"/>
	<g>
		<path class="st8" d="M83.6,241.5c-10.8,0-19.6,4.9-19.6,11s8.8,11,19.6,11s19.6-4.9,19.6-11S94.4,241.5,83.6,241.5z M83.6,261.3
			c-8.6,0-15.6-3.9-15.6-8.7c0-4.8,7-7.2,15.6-7.2s15.6,2.4,15.6,7.2C99.2,257.3,92.2,261.3,83.6,261.3z"/>
	</g>
	<path class="st9" d="M94.5,253.9c0,6-10.8,33.8-10.8,25.7c0-6-10.8-19.8-10.8-25.7"/>
	<path class="st10" d="M76.4,253.9c0,4.3,7.3,11.2,7.3,15.5c0,5.8,7.3-11.2,7.3-15.5"/>
	<path class="st1" d="M75.7,252.6c0,1.4,5.6,2.6,7,2.6c4.5,0,7-1.2,7-2.6"/>
	<g>
		<path class="st9" d="M82.8,260.9c0-1.9-3.8-4.6-5.6-6.9h-1.1c0,2.5,6.7,6.4,6.7,8.9c0,3.4,6.7-6.4,6.7-8.9H89
			C87.4,257.6,82.8,263.6,82.8,260.9z"/>
	</g>
	<g>
		<path class="st0" d="M129.7,188.3c-8,0-14.5,6.5-14.5,14.5s6.5,14.5,14.5,14.5s14.5-6.5,14.5-14.5S137.7,188.3,129.7,188.3z
			 M129.7,209.1c-3.5,0-6.3-2.8-6.3-6.3s2.8-6.3,6.3-6.3s6.3,2.8,6.3,6.3C136,206.3,133.2,209.1,129.7,209.1z"/>
		<circle class="st7" cx="129.7" cy="202.8" r="11.3"/>
	</g>
	<circle class="st6" cx="129.7" cy="202.8" r="2.4"/>
	<path class="st4" d="M238.9,245.3h-0.1v-50.1c-0.1,0-0.1,0-0.2,0c-0.5,0-1.1,0-1.6-0.1c4.4-0.2,8.5-1.7,11.8-4.2
		c1.9,3.3,3.7,6.9,5,11.4c-0.9,0.4-1.5,1.2-1.5,2.2c0,1.3,1.1,2.4,2.4,2.4h0.1c0.5,3,0.8,6.4,0.8,10.2c0,0.1,0,0.2,0,0.4
		c-1.3,0-2.4,1.1-2.4,2.4s1.1,2.4,2.4,2.4c0,3.6,0,7-0.1,10.1c-1.3,0.1-2.3,1.1-2.3,2.4c0,1.2,0.9,2.2,2.1,2.4
		c-0.3,5.3-0.9,9.7-2,13.2C252.3,247.5,248.9,245.3,238.9,245.3z"/>
	<path class="st2" d="M237.9,245.3c-0.6,0-1.4,0-1.6,0c0.4,0,0.8,0,1.3,0C237.7,245.3,237.8,245.3,237.9,245.3z"/>
	<path class="st3" d="M221.8,235c0-1.3-1-2.4-2.3-2.4c-0.1-3.1-0.1-6.5-0.1-10.1c1.2-0.1,2.2-1.1,2.2-2.4s-1-2.3-2.2-2.4
		c0-0.1,0-0.3,0-0.4c0-3.8,0.3-7.2,0.8-10.2c0.1,0,0.3,0,0.4,0c1.3,0,2.4-1.1,2.4-2.4c0-1.1-0.7-2-1.8-2.3c1.2-4.3,2.9-7.8,4.8-11
		c3.1,2.2,6.9,3.6,10.9,3.9c-0.2,0-0.5,0-0.7,0v50.1v0.1c-8.9,0.4-13.1,2.8-14.3,5.9c-1.3-3.6-1.9-8.2-2.2-13.9
		C220.9,237.2,221.8,236.2,221.8,235z"/>
	<path class="st7" d="M238.8,195.2v50.1c-0.2,0-0.5,0-0.9,0c-0.1,0-0.2,0-0.3,0c-0.5,0-0.9,0-1.3,0v-50.1c0.2,0,0.5,0,0.7,0
		c0.5,0,1,0.1,1.6,0.1C238.7,195.2,238.7,195.2,238.8,195.2z"/>
	<path class="st2" d="M237.6,245.3c0.4,0,0.7,0,1.1,0l0,0c11.4,0.2,13.5,3.6,13.6,7.8c0.4-0.8,0.7-1.6,1-2.5
		c0.3,0.8,0.4,1.6,0.4,2.5c-2.7,5.7-7.5,8.2-16.2,7.4h0.1V245.3z"/>
	<path class="st2" d="M238.8,245.3L238.8,245.3c0.1,0,0.1,0,0.1,0c10,0,13.4,2.2,14.4,5.3c-0.3,0.9-0.6,1.7-1,2.5
		C252.3,248.9,250.2,245.5,238.8,245.3z"/>
	<path class="st2" d="M238.8,245.3L238.8,245.3c-0.4,0-0.8,0-1.1,0.1v-0.1c-0.1,0-0.1,0-0.2,0c-0.4,0-0.8,0-1.1,0v-0.1
		c0.3,0,1,0,1.6,0C238.2,245.3,238.5,245.3,238.8,245.3z"/>
	<path class="st2" d="M238.8,245.3L238.8,245.3c-0.3,0-0.6,0-0.9,0C238.3,245.3,238.6,245.3,238.8,245.3z"/>
	<path class="st2" d="M237.4,245.4c0.1,0,0.1,0,0.2,0v15.1h-0.1h-0.1V245.4z"/>
	<path class="st2" d="M237.6,245.3L237.6,245.3c-0.1,0.1-0.1,0.1-0.2,0.1v-0.1C237.5,245.3,237.6,245.3,237.6,245.3z"/>
	<path class="st2" d="M222.9,253.5c0-4,3.6-7.4,13.4-8.1v15.1c0,0,1.3,0,1.2,0c-8.5,0.7-13.3-1.6-16-7l0,0c0-0.8,0.1-1.5,0.4-2.2
		C222.2,252,222.5,252.8,222.9,253.5L222.9,253.5z"/>
	<path class="st2" d="M236.3,245.3L236.3,245.3c-9.8,0.8-13.4,4.1-13.4,8.1l0,0c-0.3-0.7-0.6-1.4-0.9-2.2
		C223.2,248.1,227.4,245.7,236.3,245.3z"/>
	<path class="st2" d="M236.3,245.4c0.4,0,0.8,0,1.1-0.1v15.1h0.1c0,0-1.3,0-1.2,0V245.4z"/>
	<path class="st2" d="M237.4,245.4c-0.4,0-0.8,0-1.1,0.1v-0.1C236.7,245.3,237,245.3,237.4,245.4L237.4,245.4z"/>
	<path class="st0" d="M237.5,171.5c1.2,11,6.2,11,11.3,19.5c-3.5,2.6-7.8,4.1-12.5,4.2L237.5,171.5z"/>
	<path class="st0" d="M238.8,195.2c-0.1,0-0.1,0-0.2,0c-4.7,0-9-1.5-12.5-3.9c5.1-8.7,10.2-8.4,11.4-19.6L238.8,195.2z"/>
	<circle class="st7" cx="237.7" cy="235" r="5.6"/>
	<circle class="st5" cx="237.7" cy="235" r="2.4"/>
	<circle class="st5" cx="237.7" cy="206" r="2.4"/>
	<g>
		<path class="st8" d="M218.2,252.5c0,6.1,8.8,11,19.6,11c10.8,0,19.6-4.9,19.6-11s-8.8-11-19.6-11S218.2,246.4,218.2,252.5z
			 M222.2,252.5c0-4.8,7-7.2,15.6-7.2s15.6,2.4,15.6,7.2c0,4.8-7,8.7-15.6,8.7C229.2,261.3,222.2,257.3,222.2,252.5z"/>
	</g>
	<path class="st7" d="M68.1,235c0-1.3-1-2.3-2.3-2.4c0,1.7,0.1,3.3,0.2,4.8C67.2,237.2,68.1,236.2,68.1,235z"/>
	<path class="st7" d="M69.1,204.6c0-1-0.6-1.9-1.5-2.2c-0.4,1.5-0.8,3-1.1,4.7h0.1C68,207,69.1,205.9,69.1,204.6z"/>
	<path class="st7" d="M68.1,220c0-1.3-1.1-2.4-2.4-2.4c0,1.7,0,3.3,0,4.9C67.1,222.5,68.1,221.4,68.1,220z"/>
	<path class="st7" d="M99.6,235c0,1.2,0.9,2.2,2.1,2.4c0.1-1.5,0.1-3.1,0.2-4.8C100.6,232.6,99.6,233.7,99.6,235z"/>
	<path class="st7" d="M98.3,204.6c0,1.3,1.1,2.4,2.4,2.4c0.1,0,0.3,0,0.4,0c-0.3-1.7-0.7-3.2-1.1-4.7
		C99.1,202.6,98.3,203.5,98.3,204.6z"/>
	<path class="st7" d="M99.8,220c0,1.3,1,2.3,2.2,2.4c0-1.6,0-3.2,0-4.8C100.8,217.7,99.8,218.8,99.8,220z"/>
	<circle class="st7" cx="83.7" cy="206" r="5.6"/>
	<path class="st7" d="M253.2,235c0-1.3,1-2.3,2.3-2.4c0,1.7-0.1,3.3-0.2,4.8C254.2,237.2,253.2,236.2,253.2,235z"/>
	<path class="st7" d="M252.3,204.6c0-1,0.6-1.9,1.5-2.2c0.4,1.5,0.8,3,1.1,4.7h-0.1C253.4,207,252.3,205.9,252.3,204.6z"/>
	<path class="st7" d="M253.2,220c0-1.3,1.1-2.4,2.4-2.4c0,1.7,0,3.3,0,4.9C254.3,222.5,253.2,221.4,253.2,220z"/>
	<path class="st7" d="M221.8,235c0,1.2-0.9,2.2-2.1,2.4c-0.1-1.5-0.1-3.1-0.2-4.8C220.8,232.6,221.8,233.7,221.8,235z"/>
	<path class="st7" d="M223.1,204.6c0,1.3-1.1,2.4-2.4,2.4c-0.1,0-0.3,0-0.4,0c0.3-1.7,0.7-3.2,1.1-4.7
		C222.3,202.6,223.1,203.5,223.1,204.6z"/>
	<path class="st7" d="M221.6,220c0,1.3-1,2.3-2.2,2.4c0-1.6,0-3.2,0-4.8C220.6,217.7,221.6,218.8,221.6,220z"/>
	<circle class="st7" cx="237.7" cy="206" r="5.6"/>
	<g>
		<path class="st0" d="M222,252.5c0,4.9,7.1,8.9,15.8,8.9c8.7,0,15.8-4,15.8-8.9s-7.1-8.9-15.8-8.9C229.1,243.7,222,247.6,222,252.5
			z M225.2,252.5c0-3.9,5.6-5.8,12.6-5.8s12.6,1.9,12.6,5.8s-5.6,7.1-12.6,7.1S225.2,256.4,225.2,252.5z"/>
	</g>
	<path class="st9" d="M226.9,253.9c0,6,10.8,33.8,10.8,25.7c0-6,10.8-19.8,10.8-25.7"/>
	<path class="st10" d="M245,253.9c0,4.3-7.3,11.2-7.3,15.5c0,5.8-7.3-11.2-7.3-15.5"/>
	<path class="st1" d="M245.6,252.6c0,1.4-5.6,2.6-7,2.6c-4.5,0-7-1.2-7-2.6"/>
	<g>
		<path class="st9" d="M238.6,260.9c0-1.9,3.8-4.6,5.6-6.9h1.1c0,2.5-6.7,6.4-6.7,8.9c0,3.4-6.7-6.4-6.7-8.9h0.5
			C234,257.6,238.6,263.6,238.6,260.9z"/>
	</g>
	<g>
		<path class="st8" d="M159.8,218.2c-19.4,0-35.2,8.8-35.2,19.7c0,10.9,15.8,19.7,35.2,19.7s35.2-8.8,35.2-19.7
			C194.9,227,179.2,218.2,159.8,218.2z M159.8,253.6c-15.5,0-28.1-7-28.1-15.7s12.6-13,28.1-13s28.1,4.3,28.1,13
			C187.8,246.6,175.2,253.6,159.8,253.6z"/>
	</g>
	<g>
		<path class="st0" d="M159.8,222c-15.7,0-28.4,7.1-28.4,15.9s12.7,15.9,28.4,15.9c15.7,0,28.4-7.1,28.4-15.9S175.4,222,159.8,222z
			 M159.8,250.6c-12.5,0-22.7-5.7-22.7-12.7s10.2-10.5,22.7-10.5s22.7,3.5,22.7,10.5C182.4,244.9,172.3,250.6,159.8,250.6z"/>
	</g>
	<path class="st9" d="M179.3,234.9c0,10.7-19.4,60.9-19.4,46.3c0-10.7-19.4-35.6-19.4-46.3"/>
	<path class="st10" d="M146.7,235.1c0,7.7,13.2,20.1,13.2,27.9c0,10.5,13.2-20.1,13.2-27.9"/>
	<g>
		<path class="st9" d="M158.3,251.6c0-3.4-6.9-8.2-10.2-12.5h-1.9c0,4.4,12.1,11.5,12.1,15.9c0,6,12.1-11.5,12.1-15.9h-0.9
			C166.5,245.7,158.3,256.5,158.3,251.6z"/>
	</g>
	<path class="st1" d="M145.6,232.7c0,2.5,13.3,3.8,12.7,6.9c-1.7,7.9,12.7-4.3,12.7-6.9"/>
	<circle class="st7" cx="159.8" cy="158.6" r="14.3"/>
	<circle class="st7" cx="159.8" cy="121.3" r="11.3"/>
	<circle class="st3" cx="159.8" cy="158.4" r="11.5"/>
	<circle class="st3" cx="159.8" cy="121.3" r="9.1"/>
	<circle class="st11" cx="129.7" cy="202.8" r="7.8"/>
	<g>
		<path class="st0" d="M191.7,188.3c-8,0-14.5,6.5-14.5,14.5s6.5,14.5,14.5,14.5s14.5-6.5,14.5-14.5
			C206.3,194.8,199.8,188.3,191.7,188.3z M191.7,209.1c-3.5,0-6.3-2.8-6.3-6.3s2.8-6.3,6.3-6.3s6.3,2.8,6.3,6.3
			C198.1,206.3,195.2,209.1,191.7,209.1z"/>
		<circle class="st7" cx="191.7" cy="202.8" r="11.3"/>
	</g>
	<circle class="st11" cx="191.7" cy="202.8" r="7.8"/>
	<circle class="st6" cx="191.7" cy="202.8" r="2.4"/>
	<circle class="st7" cx="159.8" cy="202.3" r="18.6"/>
	<circle class="st3" cx="159.8" cy="202.3" r="8.9"/>
</g>
</svg>
